<svg xmlns="http://www.w3.org/2000/svg" viewBox="0 0 64 72" fill="none" aria-hidden="true">
  <defs>
    <linearGradient id="gloveBody" x1="18" y1="8" x2="52" y2="66" gradientUnits="userSpaceOnUse">
      <stop stop-color="#4a1510"/>
      <stop offset=".45" stop-color="#7a2418"/>
      <stop offset="1" stop-color="#2a0c08"/>
    </linearGradient>
    <linearGradient id="gloveHighlight" x1="24" y1="10" x2="40" y2="42" gradientUnits="userSpaceOnUse">
      <stop stop-color="#c96a52" stop-opacity=".55"/>
      <stop offset="1" stop-color="#c96a52" stop-opacity="0"/>
    </linearGradient>
    <linearGradient id="gloveCuff" x1="16" y1="48" x2="48" y2="68" gradientUnits="userSpaceOnUse">
      <stop stop-color="#1a0907"/>
      <stop offset="1" stop-color="#3d1210"/>
    </linearGradient>
  </defs>
  <path d="M34 6c8 0 14 5 16 13 1 4 1 8-1 12-2 5-6 9-11 11l-2 18c-.5 3-3 5-6 5h-8c-3 0-5-2-6-5l-3-20c-2-11 4-22 15-26 2-1 4-1 6-1v3z" fill="url(#gloveBody)"/>
  <path d="M34 6c8 0 14 5 16 13 1 4 1 8-1 12-2 5-6 9-11 11l-2 18c-.5 3-3 5-6 5h-8c-3 0-5-2-6-5l-3-20c-2-11 4-22 15-26 2-1 4-1 6-1v3z" fill="url(#gloveHighlight)"/>
  <path d="M18 48h28l2 12c.4 2.5-1.2 4.8-3.7 5.2-2.5.4-4.8-1.2-5.2-3.7l-1-8H22l-1 8c-.4 2.5-2.7 4.1-5.2 3.7-2.5-.4-4.1-2.7-3.7-5.2L18 48z" fill="url(#gloveCuff)"/>
  <path d="M22 52h20" stroke="#120605" stroke-opacity=".45" stroke-width="1.2"/>
  <ellipse cx="40" cy="22" rx="5" ry="7" fill="#fff" fill-opacity=".06"/>
</svg>
